<svg width="14" height="13" viewBox="0 0 14 13" fill="none" xmlns="http://www.w3.org/2000/svg">
<path d="M8.12094 0.438264C7.93347 0.625792 7.82815 0.8801 7.82815 1.14526C7.82815 1.41043 7.93347 1.66474 8.12094 1.85226L11.4129 5.14526L0.999939 5.15226C0.734722 5.15226 0.480369 5.25762 0.292832 5.44516C0.105296 5.63269 -6.10352e-05 5.88705 -6.10352e-05 6.15226C-6.10352e-05 6.41748 0.105296 6.67183 0.292832 6.85937C0.480369 7.04691 0.734722 7.15226 0.999939 7.15226L11.4139 7.14526L8.12094 10.4383C8.02543 10.5305 7.94925 10.6409 7.89684 10.7629C7.84443 10.8849 7.81684 11.0161 7.81569 11.1489C7.81453 11.2816 7.83984 11.4133 7.89012 11.5362C7.9404 11.6591 8.01465 11.7708 8.10854 11.8647C8.20244 11.9586 8.31409 12.0328 8.43699 12.0831C8.55988 12.1334 8.69156 12.1587 8.82434 12.1575C8.95712 12.1564 9.08834 12.1288 9.21034 12.0764C9.33235 12.024 9.44269 11.9478 9.53494 11.8523L13.1209 8.26726C13.3996 7.98868 13.6206 7.65794 13.7714 7.29393C13.9222 6.92992 13.9998 6.53977 13.9998 6.14576C13.9998 5.75176 13.9222 5.36161 13.7714 4.9976C13.6206 4.63359 13.3996 4.30285 13.1209 4.02426L9.53494 0.438264C9.34741 0.250793 9.0931 0.145477 8.82794 0.145477C8.56277 0.145477 8.30847 0.250793 8.12094 0.438264Z" fill="#3D3D3F"/>
</svg>
