<svg width="22" height="22" viewBox="0 0 22 22" fill="none" xmlns="http://www.w3.org/2000/svg">
<path d="M11 22C17.0752 22 22 17.0751 22 11C22 4.92487 17.0752 0 11 0C4.9249 0 3.05176e-05 4.92487 3.05176e-05 11C3.05176e-05 17.0751 4.9249 22 11 22Z" fill="url(#paint0_linear_2_159)"/>
<path d="M14.2227 5.19922C12.8078 5.19922 11.7226 5.99461 11 7.17827C10.2773 5.9944 9.19203 5.19922 7.77737 5.19922C6.6812 5.19922 5.68101 5.66191 4.96116 6.50203C4.28346 7.29304 3.91019 8.34939 3.91019 9.47654C3.91019 10.7021 4.36987 11.8352 5.35677 13.0423C6.22208 14.1008 7.4643 15.1895 8.90273 16.4503C9.43451 16.9165 9.98442 17.3984 10.5688 17.9244C10.6914 18.0347 10.8457 18.0898 11 18.0898C11.1543 18.0898 11.3086 18.0347 11.4312 17.9244C12.0156 17.3984 12.5655 16.9164 13.0973 16.4503C14.5358 15.1895 15.778 14.1007 16.6433 13.0423C17.6302 11.8352 18.0899 10.7021 18.0899 9.47654C18.0899 7.17183 16.5109 5.19922 14.2227 5.19922Z" fill="url(#paint1_linear_2_159)"/>
<defs>
<linearGradient id="paint0_linear_2_159" x1="11" y1="0" x2="11" y2="22" gradientUnits="userSpaceOnUse">
<stop stop-color="#FF4F4F"/>
<stop offset="1" stop-color="#FB7272" stop-opacity="0.97"/>
</linearGradient>
<linearGradient id="paint1_linear_2_159" x1="11" y1="18.0898" x2="11" y2="5.19922" gradientUnits="userSpaceOnUse">
<stop stop-color="#FFC2CC"/>
<stop offset="1" stop-color="#FFF2F4"/>
</linearGradient>
</defs>
</svg>
